<svg version="1.2" xmlns="http://www.w3.org/2000/svg" viewBox="0 0 296 186" width="296" height="186"><defs><clipPath clipPathUnits="userSpaceOnUse" id="cp1"><path d="m35 19h227c1.66 0 3 1.34 3 3v117c0 1.66-1.34 3-3 3h-227c-1.66 0-3-1.34-3-3v-117c0-1.66 1.34-3 3-3z"/></clipPath><filter x="-50%" y="-50%" width="200%" height="200%" id="f1" ><feDropShadow dx="-7.960204194457795e-16" dy="13" stdDeviation="12.5" flood-color="#4875ae" flood-opacity=".3"/></filter></defs><style>.a{filter:url(#f1);fill:#62a7ff}.b{opacity:.1;fill:#fff}</style><g clip-path="url(#cp1)"><rect class="a" x="32" y="19" width="233" height="123" rx="3"></rect><path fill-rule="evenodd" class="b" d="m30 123c52.5 21.7 100 3.7 132-34 30.5-35.9 53.6-54.4 109-58v119h-244z"/><path fill-rule="evenodd" class="b" d="m271 151h-244v-119c55.4 3.6 78.5 22.1 109 58 32 37.7 79.5 55.7 132 34z"/></g></svg>